<svg viewBox="0 0 22 22" fill="none" xmlns="http://www.w3.org/2000/svg">
    <path
        d="M20.174 8.64c-.353-.37-.719-.75-.857-1.085-.127-.307-.134-.815-.142-1.307-.014-.915-.03-1.952-.75-2.673-.72-.72-1.758-.736-2.673-.75-.492-.008-1-.015-1.307-.143-.333-.137-.715-.503-1.084-.856C12.714 1.204 11.979.5 11 .5c-.979 0-1.713.704-2.36 1.326-.37.353-.75.719-1.085.857-.305.127-.815.135-1.307.142-.915.014-1.952.03-2.673.75-.72.72-.731 1.758-.75 2.673-.008.492-.015 1-.143 1.307-.137.333-.503.715-.856 1.084C1.204 9.286.5 10.021.5 11c0 .979.704 1.713 1.326 2.36.353.37.719.75.857 1.085.127.307.135.815.142 1.307.014.915.03 1.952.75 2.673.72.72 1.758.736 2.673.75.492.008 1 .015 1.307.142.333.138.715.504 1.084.857.647.622 1.382 1.326 2.361 1.326.979 0 1.713-.704 2.36-1.326.37-.353.75-.719 1.085-.857.307-.127.815-.134 1.307-.142.915-.014 1.952-.03 2.673-.75.72-.72.736-1.758.75-2.673.008-.492.015-1 .142-1.307.138-.333.504-.715.857-1.084.622-.647 1.326-1.382 1.326-2.361 0-.979-.704-1.713-1.326-2.36zm-1.082 3.683c-.45.469-.915.953-1.161 1.549-.236.571-.247 1.225-.256 1.858-.01.656-.02 1.343-.311 1.634-.292.29-.974.302-1.634.311-.633.01-1.287.02-1.858.256-.596.246-1.08.711-1.55 1.16-.468.45-.947.909-1.322.909-.375 0-.858-.461-1.323-.908-.465-.448-.953-.915-1.549-1.161-.571-.236-1.225-.247-1.858-.256-.656-.01-1.343-.02-1.634-.311-.29-.292-.302-.974-.311-1.634-.01-.633-.02-1.287-.256-1.858-.247-.596-.712-1.08-1.16-1.55C2.458 11.855 2 11.376 2 11c0-.375.461-.858.908-1.323.448-.465.914-.953 1.161-1.549.236-.571.247-1.225.256-1.858.01-.656.02-1.343.311-1.634.292-.29.974-.302 1.634-.311.633-.01 1.287-.02 1.858-.256.596-.247 1.08-.712 1.55-1.16C10.145 2.458 10.624 2 11 2c.375 0 .858.461 1.323.908.465.448.953.914 1.549 1.161.571.236 1.225.247 1.858.256.656.01 1.343.02 1.634.311.29.292.302.974.311 1.634.01.633.02 1.287.256 1.858.246.596.711 1.08 1.16 1.55.45.468.909.947.909 1.322 0 .375-.461.858-.908 1.323zM15.28 8.219a.748.748 0 010 1.062l-5.25 5.25a.748.748 0 01-1.062 0l-2.25-2.25a.75.75 0 111.062-1.062L9.5 12.94l4.72-4.72a.749.749 0 011.06 0z"
        fill="#45B442" />
</svg>