<svg viewBox="0 0 46 53" fill="none" xmlns="http://www.w3.org/2000/svg">
    <g filter="url(#prefix__filter0_ddddd_4104_215)">
        <path
            d="M40.475 16.504c-.673-.704-1.37-1.429-1.632-2.066-.243-.584-.257-1.552-.272-2.49-.026-1.743-.055-3.718-1.428-5.09-1.373-1.374-3.348-1.403-5.091-1.43-.938-.014-1.906-.028-2.49-.27-.635-.263-1.362-.96-2.066-1.633C26.264 2.341 24.864 1 23 1c-1.864 0-3.262 1.341-4.496 2.525-.704.673-1.429 1.37-2.067 1.632-.58.243-1.551.257-2.489.272-1.743.026-3.718.055-5.09 1.428-1.374 1.373-1.394 3.348-1.43 5.091-.014.938-.028 1.906-.27 2.49-.263.635-.96 1.362-1.633 2.066C4.341 17.736 3 19.136 3 21c0 1.864 1.341 3.263 2.525 4.497.673.703 1.37 1.428 1.632 2.066.243.584.257 1.551.272 2.489.026 1.743.055 3.718 1.428 5.09 1.373 1.374 3.348 1.403 5.091 1.43.938.014 1.906.028 2.49.27.635.263 1.362.96 2.066 1.633C19.736 39.66 21.136 41 23 41c1.864 0 3.262-1.341 4.496-2.525.704-.673 1.429-1.37 2.067-1.632.583-.243 1.551-.257 2.489-.272 1.743-.026 3.718-.055 5.09-1.428 1.374-1.373 1.403-3.348 1.43-5.091.014-.938.028-1.905.27-2.49.263-.635.96-1.362 1.633-2.066C41.659 24.265 43 22.864 43 21c0-1.864-1.341-3.262-2.525-4.496zm-9.321 1.221l-10 10a1.428 1.428 0 01-2.022 0l-4.286-4.286a1.43 1.43 0 012.022-2.021l3.275 3.277 8.99-8.991a1.43 1.43 0 012.02 2.021z"
            fill="#45B442" />
        <path
            d="M39.753 17.196v-.001l-.027-.027a22.01 22.01 0 01-.989-1.082c-.31-.371-.629-.806-.819-1.268-.182-.44-.255-.953-.293-1.41a21.751 21.751 0 01-.053-1.422v-.022s0 0 0 0c-.029-1.834-.097-3.36-1.136-4.4-1.04-1.039-2.566-1.107-4.4-1.135 0 0 0 0 0 0h-.022a21.71 21.71 0 01-1.422-.054c-.457-.038-.972-.111-1.412-.294-.46-.19-.894-.508-1.265-.818-.374-.311-.75-.671-1.091-.998l-.019-.017-.001-.002C25.504 2.997 24.394 2 23 2c-1.393 0-2.502.997-3.804 2.247h-.001l-.027.027c-.339.324-.712.68-1.082.989-.37.31-.804.627-1.265.818-.44.183-.955.257-1.412.294-.464.039-.968.046-1.422.053h-.023s0 0 0 0c-1.834.029-3.36.097-4.4 1.136-1.038 1.039-1.098 2.56-1.136 4.402v.02a21.71 21.71 0 01-.053 1.422c-.038.457-.111.972-.294 1.412-.19.46-.508.894-.818 1.265-.311.374-.671.75-.998 1.091l-.017.019-.002.002C4.997 18.495 4 19.607 4 21c0 1.393.997 2.502 2.247 3.804v.001l.027.028a22 22 0 01.989 1.08c.31.372.629.807.819 1.269.182.44.255.954.293 1.41.039.465.046.967.053 1.422v.023s0 0 0 0c.029 1.833.097 3.36 1.136 4.399 1.04 1.039 2.566 1.107 4.4 1.136 0 0 0 0 0 0h.022c.455.007.957.014 1.422.053.457.038.972.111 1.412.294m22.933-18.723L16.437 36.843m23.316-19.647C41.003 18.498 42 19.606 42 21c0 1.393-.997 2.504-2.246 3.804l-.002.001-.017.019c-.327.34-.687.717-.998 1.09-.31.372-.628.806-.818 1.266m1.834-9.984L37.92 27.18M16.82 35.92h.002l-.384.923m.382-.924s0 0 0 0l-.383.924m.383-.924c.46.19.894.508 1.265.818.374.311.75.671 1.091.998l.019.017.001.002C20.496 39.003 21.606 40 23 40c1.393 0 2.502-.997 3.804-2.246l.001-.002.027-.026c.339-.323.712-.68 1.082-.989.371-.31.806-.629 1.268-.819m-12.744.925c.633.262 1.358.955 2.06 1.626l.006.006C19.736 39.66 21.136 41 23 41c1.864 0 3.262-1.341 4.496-2.525l.017-.016c.698-.668 1.417-1.356 2.05-1.616m-.381-.925l-.003.002.384.923m-.381-.925l.38.925m-.38-.925c.44-.182.954-.255 1.41-.293.465-.038.967-.046 1.422-.053h.022l.016 1m-2.49.27c.583-.242 1.548-.256 2.484-.27h.006m0 0l-.016-1m.016 1h.007c1.74-.027 3.712-.058 5.084-1.43 1.371-1.37 1.402-3.342 1.428-5.083v-.007m-6.535 5.52l8.439-19.068C41.659 17.738 43 19.136 43 21c0 1.864-1.341 3.264-2.525 4.497l-.006.006c-.671.701-1.364 1.426-1.626 2.06m-6.807 8.009c1.834-.029 3.36-.097 4.4-1.136 1.039-1.039 1.107-2.566 1.136-4.4l1 .016m-6.536 5.52l5.535-5.536 1 .016m0 0v-.006c.015-.936.03-1.9.272-2.483m0 0l-.924-.384s0 0 0 0m.924.384l-.924-.382v-.001M17.575 20.71h0a2.43 2.43 0 00-3.436 3.436l4.286 4.285a2.428 2.428 0 003.436 0l10-10a2.43 2.43 0 00-3.436-3.435h0l-8.282 8.283-2.568-2.569z"
            stroke="#fff" stroke-width="2" />
    </g>
    <defs>
        <filter id="prefix__filter0_ddddd_4104_215" x="0" y="0" width="46" height="56" filterUnits="userSpaceOnUse"
            color-interpolation-filters="sRGB">
            <feFlood flood-opacity="0" result="BackgroundImageFix" />
            <feColorMatrix in="SourceAlpha" values="0 0 0 0 0 0 0 0 0 0 0 0 0 0 0 0 0 0 127 0" result="hardAlpha" />
            <feOffset />
            <feGaussianBlur stdDeviation=".5" />
            <feColorMatrix values="0 0 0 0 0 0 0 0 0 0 0 0 0 0 0 0 0 0 0.29 0" />
            <feBlend in2="BackgroundImageFix" result="effect1_dropShadow_4104_215" />
            <feColorMatrix in="SourceAlpha" values="0 0 0 0 0 0 0 0 0 0 0 0 0 0 0 0 0 0 127 0" result="hardAlpha" />
            <feOffset dy="2" />
            <feGaussianBlur stdDeviation="1" />
            <feColorMatrix values="0 0 0 0 0 0 0 0 0 0 0 0 0 0 0 0 0 0 0.26 0" />
            <feBlend in2="effect1_dropShadow_4104_215" result="effect2_dropShadow_4104_215" />
            <feColorMatrix in="SourceAlpha" values="0 0 0 0 0 0 0 0 0 0 0 0 0 0 0 0 0 0 127 0" result="hardAlpha" />
            <feOffset dy="4" />
            <feGaussianBlur stdDeviation="1.5" />
            <feColorMatrix values="0 0 0 0 0 0 0 0 0 0 0 0 0 0 0 0 0 0 0.15 0" />
            <feBlend in2="effect2_dropShadow_4104_215" result="effect3_dropShadow_4104_215" />
            <feColorMatrix in="SourceAlpha" values="0 0 0 0 0 0 0 0 0 0 0 0 0 0 0 0 0 0 127 0" result="hardAlpha" />
            <feOffset dy="8" />
            <feGaussianBlur stdDeviation="1.5" />
            <feColorMatrix values="0 0 0 0 0 0 0 0 0 0 0 0 0 0 0 0 0 0 0.04 0" />
            <feBlend in2="effect3_dropShadow_4104_215" result="effect4_dropShadow_4104_215" />
            <feColorMatrix in="SourceAlpha" values="0 0 0 0 0 0 0 0 0 0 0 0 0 0 0 0 0 0 127 0" result="hardAlpha" />
            <feOffset dy="12" />
            <feGaussianBlur stdDeviation="1.5" />
            <feColorMatrix values="0 0 0 0 0 0 0 0 0 0 0 0 0 0 0 0 0 0 0.01 0" />
            <feBlend in2="effect4_dropShadow_4104_215" result="effect5_dropShadow_4104_215" />
            <feBlend in="SourceGraphic" in2="effect5_dropShadow_4104_215" result="shape" />
        </filter>
    </defs>
</svg>