<svg viewBox="0 0 44 51" fill="none" xmlns="http://www.w3.org/2000/svg">
    <g filter="url(#prefix__filter0_ddddd_4104_178)">
        <path
            d="M37.838 11.082h-6.314c.07-.06.142-.117.21-.18a5.316 5.316 0 001.784-3.857 5.871 5.871 0 00-6.04-6.042 5.315 5.315 0 00-3.86 1.783 9.89 9.89 0 00-1.62 2.606 9.889 9.889 0 00-1.619-2.606 5.316 5.316 0 00-3.859-1.783 5.872 5.872 0 00-6.04 6.042 5.315 5.315 0 001.783 3.857c.069.06.14.117.21.18H6.16a2.88 2.88 0 00-2.88 2.88v5.76a2.88 2.88 0 002.88 2.88V34.12A2.88 2.88 0 009.04 37h10.799a.72.72 0 00.72-.72V19.721h-14.4v-5.76h14.4v5.76h2.88v-5.76h14.399v5.76h-14.4v16.56a.72.72 0 00.72.72h10.8a2.88 2.88 0 002.88-2.88V22.6a2.88 2.88 0 002.88-2.88v-5.76a2.88 2.88 0 00-2.88-2.88zM14.17 8.742a2.464 2.464 0 01-.81-1.8 2.992 2.992 0 012.984-3.06h.089a2.464 2.464 0 011.8.81c1.51 1.707 2.042 4.536 2.23 6.285-1.757-.185-4.585-.718-6.293-2.235zm15.66 0c-1.709 1.512-4.544 2.045-6.3 2.232.214-1.892.808-4.662 2.248-6.28a2.463 2.463 0 011.8-.81h.088a2.992 2.992 0 012.971 3.073 2.463 2.463 0 01-.812 1.785h.004z"
            fill="#D658B3" />
        <path
            d="M12.361 6.96A3.463 3.463 0 0013.5 9.482h0l.007.007c1.005.892 2.292 1.459 3.502 1.826 1.22.37 2.433.56 3.35.656l1.23.13-.131-1.23c-.098-.913-.287-2.124-.656-3.343-.367-1.209-.931-2.495-1.82-3.5h0l-.007-.008a3.465 3.465 0 00-2.53-1.139v0h-.102a3.992 3.992 0 00-3.982 4.077zm0 0v-.007l1-.01m-1 .016v.006l1-.023m0 0a2.992 2.992 0 012.984-3.06h.089a2.464 2.464 0 011.8.81c1.241 1.404 1.822 3.567 2.094 5.264l.24.027-.104.994-.995.107a18.86 18.86 0 00-.027-.241c-1.701-.27-3.865-.852-5.27-2.101a2.464 2.464 0 01-.81-1.8zm17.517 3.377l-2.084 1.763h9.044a1.88 1.88 0 011.88 1.88v5.76a1.88 1.88 0 01-1.88 1.88h-1V34.12a1.88 1.88 0 01-1.88 1.88h-10.52V20.721h14.4v-7.76h-16.4v5.76h-.88v-5.76H5.16v7.76h14.399v15.28H9.039a1.88 1.88 0 01-1.879-1.88V21.6h-1a1.88 1.88 0 01-1.88-1.88v-5.76a1.88 1.88 0 011.88-1.88h8.925l-1.943-1.743c-.049-.044-.147-.127-.196-.168l-.024-.02a4.314 4.314 0 01-1.443-3.127h0v-.008a4.871 4.871 0 015.012-5.013h.008a4.315 4.315 0 013.128 1.443 8.887 8.887 0 011.45 2.337L22 7.958l.92-2.176c.36-.85.85-1.638 1.452-2.337a4.314 4.314 0 013.128-1.443h.008a4.871 4.871 0 015.012 5.013h0v.008a4.317 4.317 0 01-.077.719h-.904c.061-.25.095-.505.1-.763a3.993 3.993 0 00-3.965-4.095v0h-.095v0h-.01a3.464 3.464 0 00-2.53 1.139h0l-.006.006c-.853.958-1.415 2.205-1.791 3.403-.38 1.209-.592 2.44-.704 3.43l-.14 1.238 1.24-.132c.915-.097 2.13-.287 3.351-.656 1.211-.367 2.5-.931 3.505-1.821l1.943-1.72a4.31 4.31 0 01-1.366 2.383l-.006.006-.007.006a13.08 13.08 0 00-.18.152z"
            stroke="#fff" stroke-width="2" />
    </g>
    <defs>
        <filter id="prefix__filter0_ddddd_4104_178" x=".28" y="0" width="43.437" height="52"
            filterUnits="userSpaceOnUse" color-interpolation-filters="sRGB">
            <feFlood flood-opacity="0" result="BackgroundImageFix" />
            <feColorMatrix in="SourceAlpha" values="0 0 0 0 0 0 0 0 0 0 0 0 0 0 0 0 0 0 127 0" result="hardAlpha" />
            <feOffset />
            <feGaussianBlur stdDeviation=".5" />
            <feColorMatrix values="0 0 0 0 0 0 0 0 0 0 0 0 0 0 0 0 0 0 0.29 0" />
            <feBlend in2="BackgroundImageFix" result="effect1_dropShadow_4104_178" />
            <feColorMatrix in="SourceAlpha" values="0 0 0 0 0 0 0 0 0 0 0 0 0 0 0 0 0 0 127 0" result="hardAlpha" />
            <feOffset dy="2" />
            <feGaussianBlur stdDeviation="1" />
            <feColorMatrix values="0 0 0 0 0 0 0 0 0 0 0 0 0 0 0 0 0 0 0.26 0" />
            <feBlend in2="effect1_dropShadow_4104_178" result="effect2_dropShadow_4104_178" />
            <feColorMatrix in="SourceAlpha" values="0 0 0 0 0 0 0 0 0 0 0 0 0 0 0 0 0 0 127 0" result="hardAlpha" />
            <feOffset dy="4" />
            <feGaussianBlur stdDeviation="1.5" />
            <feColorMatrix values="0 0 0 0 0 0 0 0 0 0 0 0 0 0 0 0 0 0 0.15 0" />
            <feBlend in2="effect2_dropShadow_4104_178" result="effect3_dropShadow_4104_178" />
            <feColorMatrix in="SourceAlpha" values="0 0 0 0 0 0 0 0 0 0 0 0 0 0 0 0 0 0 127 0" result="hardAlpha" />
            <feOffset dy="8" />
            <feGaussianBlur stdDeviation="1.5" />
            <feColorMatrix values="0 0 0 0 0 0 0 0 0 0 0 0 0 0 0 0 0 0 0.04 0" />
            <feBlend in2="effect3_dropShadow_4104_178" result="effect4_dropShadow_4104_178" />
            <feColorMatrix in="SourceAlpha" values="0 0 0 0 0 0 0 0 0 0 0 0 0 0 0 0 0 0 127 0" result="hardAlpha" />
            <feOffset dy="12" />
            <feGaussianBlur stdDeviation="1.5" />
            <feColorMatrix values="0 0 0 0 0 0 0 0 0 0 0 0 0 0 0 0 0 0 0.01 0" />
            <feBlend in2="effect4_dropShadow_4104_178" result="effect5_dropShadow_4104_178" />
            <feBlend in="SourceGraphic" in2="effect5_dropShadow_4104_178" result="shape" />
        </filter>
    </defs>
</svg>