<svg viewBox="0 0 34 32" fill="none" xmlns="http://www.w3.org/2000/svg">
    <path
        d="M30.75 9.25h-5.481c.06-.052.123-.102.183-.156A4.614 4.614 0 0027 5.745 5.098 5.098 0 0021.756.5a4.614 4.614 0 00-3.35 1.548A8.586 8.586 0 0017 4.311a8.586 8.586 0 00-1.406-2.263A4.615 4.615 0 0012.244.5 5.097 5.097 0 007 5.745a4.614 4.614 0 001.548 3.349c.06.051.122.101.183.156H3.25a2.5 2.5 0 00-2.5 2.5v5a2.5 2.5 0 002.5 2.5v10a2.5 2.5 0 002.5 2.5h9.375a.625.625 0 00.625-.625V16.75H3.25v-5h12.5v5h2.5v-5h12.5v5h-12.5v14.375a.625.625 0 00.625.625h9.375a2.5 2.5 0 002.5-2.5v-10a2.5 2.5 0 002.5-2.5v-5a2.5 2.5 0 00-2.5-2.5zM10.205 7.219a2.139 2.139 0 01-.703-1.563A2.597 2.597 0 0112.092 3h.077a2.14 2.14 0 011.562.703c1.311 1.481 1.774 3.938 1.936 5.456-1.525-.16-3.98-.623-5.462-1.94zm13.593 0c-1.482 1.312-3.943 1.775-5.468 1.937.186-1.642.701-4.047 1.951-5.451a2.14 2.14 0 011.563-.703h.076a2.597 2.597 0 012.58 2.667 2.14 2.14 0 01-.705 1.55h.003z"
        fill="#756C71" />
</svg>