<svg viewBox="0 0 98 40" fill="none" xmlns="http://www.w3.org/2000/svg">
    <path
        d="M17.396 15.447c.15-.068.31-.143.478-.227a7.11 7.11 0 01.377-.176c.118-.067.252-.126.403-.176l.1-.252c.05-.084.093-.167.126-.251a34.47 34.47 0 00.956-2.466c.319-.889.445-1.87.378-2.943.1-.218.176-.42.226-.604a3.26 3.26 0 00.151-.578c.034-.219.042-.445.025-.68 0-.251-.008-.595-.025-1.031.1-.168.184-.394.252-.68a1.84 1.84 0 00.075-.78l-.075-.477.477.05A1.375 1.375 0 0121.245 4l-.05-.151a7.873 7.873 0 01-.176-.428 1.148 1.148 0 010-.478c-.302-.2-.512-.494-.63-.88-.066-.134-.226-.269-.477-.403a.292.292 0 01-.076-.05 1.528 1.528 0 00-.125-.1.548.548 0 01-.202-.428.975.975 0 00-.126-.05 1.247 1.247 0 01-.125-.076 19.685 19.685 0 00-.579-.252A1.503 1.503 0 0018.1.58c-.184 0-.36.05-.528.15-.285.705-.662 1.292-1.132 1.761-.47.47-.956.906-1.46 1.309-.267.218-.527.436-.779.654-.235.218-.503.47-.805.754a.99.99 0 00-.403.151c-.134.068-.268.151-.402.252-.201.134-.42.268-.654.403a1.514 1.514 0 01-.73.176c-.235 0-.503-.118-.805-.353a1.883 1.883 0 01-.05-.402c0-.134.008-.26.025-.377.05-.269.034-.478-.05-.63l-.025-.251c.084-.218.117-.428.1-.629 0-.201-.042-.394-.125-.579a2.124 2.124 0 00-.302-.578 11.877 11.877 0 00-.378-.604 2.65 2.65 0 00-.327-.478c-.15-.033-.293-.067-.427-.1-.118-.05-.269-.101-.453-.151-.134 0-.235-.084-.302-.252l-.05-.277C7.87.327 7.6.151 7.232 0 6.696.2 6.285.478 6 .83c-.269.336-.554.763-.856 1.283-.1.168-.21.344-.327.528-.1.168-.218.353-.352.554-.168.251-.377.62-.629 1.107a85.234 85.234 0 00-.754 1.61c-.269.57-.537 1.166-.805 1.786-.269.604-.512 1.157-.73 1.66a76.55 76.55 0 01-.503 1.233 6.219 6.219 0 00-.201.503c-.151.353-.235.772-.252 1.258a8 8 0 00.126 1.409c.1.47.235.914.402 1.333.185.403.386.722.604.956.302.05.52.076.654.076.285 0 .512-.093.68-.277.167-.168.394-.545.679-1.132.033-.1.05-.21.05-.327a1.28 1.28 0 00.025-.252c.017-.084.042-.167.076-.251.05-.084.109-.16.176-.227.084-.084.159-.167.226-.251a.567.567 0 00.227-.353.493.493 0 01-.05-.377c.083-.251.209-.478.377-.68a7.95 7.95 0 01.478-.527 2.195 2.195 0 01.075-.705c.084-.285.176-.562.277-.83.1-.268.201-.503.302-.704.1-.218.176-.36.226-.428l.201-.327.202.377c.704 1.426 1.76 2.139 3.17 2.139.553 0 1.115-.093 1.685-.277.587-.185 1.157-.42 1.71-.705.57-.301 1.116-.62 1.636-.955.52-.353.998-.688 1.434-1.007.033-.1.075-.16.126-.176a.826.826 0 01.2-.025l.227.252c0 .15-.042.251-.126.301-.536 1.862-.796 3.397-.78 4.604.034 1.208.378 2.055 1.032 2.541.184 0 .344-.033.478-.1zM35.484 1.786a.757.757 0 000-.277 4.913 4.913 0 01-.88-.478 2.637 2.637 0 01-.63-.73c.017.152-.024.202-.125.152-.084-.067-.16-.025-.227.126-.134 0-.276-.076-.427-.227-.705.134-1.334.235-1.887.302-.553.067-1.09.143-1.61.226-.503.068-1.023.16-1.56.277-.52.118-1.115.285-1.786.503-.369.084-.721.16-1.057.227-.335.067-.645.15-.93.251-.286.1-.554.235-.805.403a2.07 2.07 0 00-.604.604c.084.285.142.57.176.855.033.268.075.537.126.805.05.252.125.511.226.78.117.251.294.486.528.704a8.673 8.673 0 01-.377.88c-.117.252-.243.504-.377.755-.118.252-.235.512-.353.78-.117.269-.226.554-.327.856-.117-.017-.184.016-.2.1-.018.067-.068.11-.152.126a.738.738 0 01-.176.654 1.66 1.66 0 00-.302.68c-.05.234-.067.494-.05.78.033.284.075.578.126.88.05.285.1.562.15.83.05.268.084.511.101.73.185.083.294.21.327.377.05.15.143.285.277.402.319.32.73.537 1.233.655.503.134 1.031.21 1.585.226.553.017 1.098-.008 1.635-.075a15.95 15.95 0 001.383-.227c.135 0 .252.017.353.05.1.05.226.06.377.026a79.39 79.39 0 011.686-.302c.52-.084.99-.202 1.408-.353.42-.15.789-.368 1.107-.654.336-.301.63-.73.88-1.283-.1.017-.175 0-.226-.05a.9.9 0 01-.075-.226 1.432 1.432 0 00-.075-.252.45.45 0 00-.126-.252.481.481 0 01-.378-.1 4.539 4.539 0 01-.302-.277 5.063 5.063 0 00-.276-.352.786.786 0 00-.352-.277 6.864 6.864 0 01-1.283.302c-.453.05-.848.168-1.183.352-.537-.017-.981 0-1.333.05-.352.034-.696.076-1.032.126-.335.034-.696.06-1.081.076-.37.017-.839-.017-1.41-.1.169-.454.361-.881.58-1.284.217-.402.46-.78.729-1.132.201.067.428.1.68.1.268-.016.494.018.678.101.135-.084.32-.109.554-.075.251.033.444.008.579-.076.067.05.117.076.15.076h.202c.402.017.763-.017 1.081-.1.336-.101.646-.227.931-.378.302-.151.587-.319.856-.503.268-.201.536-.394.805-.579a.801.801 0 00.05-.478 1.291 1.291 0 00-.126-.453.812.812 0 01-.453-.075 2.826 2.826 0 01-.352-.302l-.352-.352a2.09 2.09 0 00-.352-.327c-.017-.067-.009-.11.025-.126.033-.034.042-.092.025-.176-.688.017-1.392.059-2.113.126-.705.067-1.35.075-1.937.025a.84.84 0 01-.076-.378.93.93 0 00-.075-.478c.15-.05.302-.092.453-.125a.947.947 0 00.377-.227c.335.034.587.009.755-.075a.755.755 0 01.604 0 4.893 4.893 0 011.66-.654c.57-.101 1.124-.193 1.66-.277a6.667 6.667 0 001.484-.453c.47-.218.881-.612 1.233-1.182a1.068 1.068 0 01-.05-.252v-.176c.017-.05.025-.1.025-.15z"
        fill="#D658B3" />
    <path fill-rule="evenodd" clip-rule="evenodd"
        d="M52.29 15.22c-.169.084-.328.16-.479.226-.134.068-.293.101-.478.101-.654-.486-.998-1.333-1.031-2.54-.017-1.208.243-2.743.78-4.605.083-.05.125-.15.125-.301l-.226-.252a.826.826 0 00-.201.025c-.05.017-.093.076-.126.176-.436.319-.914.654-1.434 1.007-.52.335-1.065.654-1.635.955-.554.286-1.124.52-1.711.705a5.454 5.454 0 01-1.686.277c-1.408 0-2.465-.713-3.17-2.139l-.2-.377-.202.327c-.05.067-.126.21-.226.428-.1.2-.202.436-.302.704-.1.268-.193.545-.277.83a2.197 2.197 0 00-.075.705c-.151.15-.31.327-.478.528a2.075 2.075 0 00-.378.68.492.492 0 00.05.377.566.566 0 01-.226.352 3.06 3.06 0 01-.226.251 1.17 1.17 0 00-.176.227 1.432 1.432 0 00-.076.251c0 .084-.008.168-.025.252 0 .117-.017.226-.05.327-.285.587-.512.964-.68 1.132-.167.184-.394.277-.679.277-.134 0-.352-.025-.654-.076-.218-.235-.42-.553-.604-.956a8.222 8.222 0 01-.402-1.333 7.995 7.995 0 01-.126-1.409c.017-.486.1-.905.252-1.258 0-.016.067-.184.2-.503.135-.318.303-.73.504-1.233.218-.503.461-1.056.73-1.66.268-.62.536-1.216.805-1.786.268-.587.52-1.124.754-1.61.252-.487.462-.856.63-1.107.133-.201.25-.386.352-.554.117-.184.226-.36.327-.528.301-.52.587-.947.855-1.283.285-.352.696-.629 1.233-.83.369.15.637.327.805.528l.05.277c.067.168.168.252.302.252.184.05.335.1.453.15.134.034.276.068.427.101.118.134.227.294.327.478.135.201.26.403.378.604.134.184.234.377.302.578.084.185.125.378.125.58.017.2-.016.41-.1.628l.025.252c.084.15.1.36.05.629a2.683 2.683 0 00-.025.377c0 .117.017.251.05.402.302.235.57.353.805.353.269 0 .512-.06.73-.176.235-.135.453-.269.654-.403.134-.1.268-.184.403-.252a.99.99 0 01.402-.15c.302-.286.57-.537.805-.755.252-.218.512-.436.78-.654.503-.403.99-.839 1.46-1.308.469-.47.846-1.057 1.131-1.762.168-.1.344-.15.529-.15.184 0 .377.041.578.125.201.084.394.168.579.252.05.033.092.059.125.075.05.017.093.034.126.05 0 .168.067.311.202.428.067.05.109.084.125.101a.292.292 0 00.076.05c.251.134.41.269.478.403.091.3.24.546.443.734.136-.234.307-.437.513-.608a3.852 3.852 0 011.031-.654 5.947 5.947 0 011.233-.428c.436-.118.855-.227 1.258-.327a40.71 40.71 0 001.962-.403c.654-.15 1.359-.201 2.113-.15.1-.051.218-.076.353-.076.15-.017.301-.025.452-.025h.428c.15-.017.277-.05.377-.1.084.1.202.167.352.2a1.1 1.1 0 01.529.227c.201-.151.369-.185.503-.1.15.083.285.175.402.276l.328.277a.603.603 0 00.352.125c.117.151.26.294.427.428.185.134.353.277.504.428.167.134.302.285.402.453.118.167.176.36.176.578-.017.084.009.134.076.151.067.017.117.05.15.1.017.52-.066.974-.251 1.36a4.461 4.461 0 01-.654 1.03c-.252.32-.537.621-.855.906a8.432 8.432 0 00-.83.906c.167.218.36.41.578.579l.654.503c.235.167.453.344.654.528.201.185.37.403.503.654a.829.829 0 00.126.1c.05.018.1.043.151.076.05.168.117.344.201.529.084.167.151.335.202.503.067.15.109.293.125.427a.338.338 0 01-.1.302c.1.05.16.134.176.252a.757.757 0 010 .277l-.63.805c-.116.15-.2.268-.25.352a.875.875 0 01-.177.176c-.05.05-.176.16-.377.327a20.55 20.55 0 01-2.34 1.208 9.689 9.689 0 01-2.49.73c-.135.184-.394.31-.78.376-.37.084-.713.16-1.032.227a.225.225 0 01-.125-.151c0-.05-.034-.092-.101-.126-.017.168-.092.252-.226.252-.135.016-.302-.017-.504-.101a3.369 3.369 0 01-.603-.302 10.56 10.56 0 01-.529-.327 5.722 5.722 0 01-.276.403.652.652 0 01-.327.276 31.393 31.393 0 00-.428-.075c-.084-.017-.168.017-.252.1a.958.958 0 01-.251-.176 1.876 1.876 0 00-.176-.2c-.05-.051-.118-.101-.202-.152a.859.859 0 00-.302-.126c.034-.067.017-.167-.05-.301-.067-.151-.167-.244-.302-.277.067-.118.034-.26-.1-.428a2.474 2.474 0 01-.277-.604c.034-.184.059-.385.075-.603.017-.218.118-.344.302-.378a1.32 1.32 0 00-.075-.302l-.1-.251a.858.858 0 00.25-.352c.051-.151.093-.302.127-.453.033-.151.075-.302.125-.453a.768.768 0 01.277-.377c.151-.504.268-.873.352-1.107a4.19 4.19 0 00.176-.73c.05-.235.101-.486.151-.755.067-.268.176-.603.327-1.006-.016-.252.009-.47.076-.654.067-.201.134-.394.201-.579.084-.2.151-.402.201-.603.05-.218.042-.47-.025-.755-.235.017-.402.1-.503.251-.1.135-.168.32-.201.554a.683.683 0 01-.503.201c-.185-.017-.353 0-.504.05a3.791 3.791 0 01-1.459-1.006 4.86 4.86 0 01-.397-.516l-.357-.037.075.478c.034.235.009.494-.075.78a2.411 2.411 0 01-.252.679c.017.436.025.78.025 1.031.017.235.009.461-.025.68a3.26 3.26 0 01-.15.578c-.051.185-.127.386-.227.604.067 1.073-.059 2.054-.378 2.943a34.47 34.47 0 01-.956 2.466 1.768 1.768 0 01-.125.251l-.101.252c-.151.05-.285.109-.403.176a7.11 7.11 0 00-.377.176zM62.678 3.396c.855-.184 1.71-.26 2.566-.226-.42.503-.88.964-1.384 1.383a7.028 7.028 0 01-1.735 1.007 1.909 1.909 0 00-.705-.755 9.274 9.274 0 01-.855-.629c.57-.335 1.274-.595 2.113-.78zm3.17 7.396a.762.762 0 00-.277.403c-.42.15-.822.319-1.207.503-.37.168-.755.335-1.158.503-.385.168-.788.327-1.207.478-.42.134-.88.235-1.384.302.185-.537.377-1.09.579-1.66.201-.57.394-1.099.578-1.585.37-.05.73-.134 1.082-.252a6.5 6.5 0 011.132-.251 3.955 3.955 0 011.258 0c.453.05.948.218 1.484.503.017.201-.025.36-.125.478-.101.1-.219.201-.353.302a5.722 5.722 0 00-.402.276z"
        fill="#D658B3" />
    <path
        d="M84.666 1.51a.757.757 0 010 .276c0 .05-.008.1-.025.151v.176c0 .05.017.134.05.252-.352.57-.763.964-1.232 1.182A6.667 6.667 0 0181.975 4c-.537.084-1.09.176-1.66.277-.554.1-1.108.318-1.661.654a.755.755 0 00-.604 0c-.168.084-.42.109-.755.075-.1.1-.226.176-.377.227a4.57 4.57 0 00-.453.125.93.93 0 01.076.478c0 .151.025.277.075.378.587.05 1.233.042 1.937-.025a30.966 30.966 0 012.114-.126c.016.084.008.142-.026.176-.033.017-.042.059-.025.126.118.084.235.193.352.327l.353.352c.117.117.234.218.352.302a.812.812 0 00.453.075c.067.134.109.285.125.453.034.151.017.31-.05.478-.268.185-.537.377-.805.579a7.152 7.152 0 01-.855.503c-.285.15-.596.277-.931.377-.319.084-.68.118-1.082.1h-.201c-.034 0-.084-.024-.151-.075-.134.084-.327.11-.579.076-.234-.034-.419-.009-.553.075a1.419 1.419 0 00-.68-.1c-.251 0-.477-.034-.679-.1-.268.351-.511.729-.73 1.131-.217.403-.41.83-.578 1.283.57.084 1.04.118 1.409.1.386-.016.746-.041 1.082-.075.335-.05.679-.092 1.031-.125.352-.05.797-.068 1.334-.05.335-.185.73-.303 1.182-.353.47-.067.897-.168 1.283-.302.134.05.252.143.352.277.1.117.193.235.277.352.1.1.201.193.302.277.1.084.226.117.377.1a.45.45 0 01.126.252c.033.084.059.168.075.252a.9.9 0 00.076.226c.05.05.126.067.226.05-.251.554-.545.982-.88 1.283a3.333 3.333 0 01-1.107.654c-.42.151-.89.269-1.409.353a79.39 79.39 0 00-1.686.302.56.56 0 01-.377-.026c-.1-.033-.218-.05-.352-.05-.386.084-.847.16-1.384.226-.536.068-1.081.093-1.635.076a6.944 6.944 0 01-1.585-.226c-.503-.118-.914-.336-1.233-.655a.918.918 0 01-.276-.402c-.034-.168-.143-.294-.327-.377a6.853 6.853 0 00-.101-.73c-.05-.268-.1-.545-.15-.83-.051-.302-.093-.596-.127-.88-.016-.286 0-.546.05-.78a1.66 1.66 0 01.302-.68.738.738 0 00.177-.654c.084-.017.134-.059.15-.126.017-.084.084-.117.202-.1.1-.302.21-.587.327-.856.117-.268.235-.528.352-.78.134-.251.26-.503.377-.754.135-.269.26-.562.378-.88a2.284 2.284 0 01-.528-.705 5.031 5.031 0 01-.227-.78c-.05-.268-.092-.537-.126-.805a5.179 5.179 0 00-.176-.855 2.07 2.07 0 01.604-.604c.251-.168.52-.302.805-.403.285-.1.595-.184.93-.251.336-.067.688-.143 1.057-.227.671-.218 1.267-.385 1.787-.503.536-.117 1.056-.21 1.56-.277.52-.083 1.056-.159 1.61-.226a28.608 28.608 0 001.886-.302c.151.151.294.227.428.227.067-.151.142-.193.226-.126.1.05.143 0 .126-.151.168.285.377.528.629.73.268.184.562.343.88.477z"
        fill="#D658B3" />
    <path fill-rule="evenodd" clip-rule="evenodd"
        d="M87.358 14.591c.151-.352.319-.864.503-1.534.32.285.587.528.805.73.235.2.487.393.755.578.285.167.612.344.981.528.386.168.88.369 1.485.604 1.207.47 2.205.788 2.993.956.789.184 1.443.176 1.963-.025a.57.57 0 00.352-.151c.084-.067.16-.151.226-.252l.201-.302a.9.9 0 01.252-.251.41.41 0 00-.201 0c-.05 0-.084-.025-.1-.076.1-.117.159-.268.175-.453a2.43 2.43 0 00-.025-.603 1.778 1.778 0 00-.226-.63 1.9 1.9 0 00-.378-.553 95.786 95.786 0 00-.905-.075l-.604-.1c-.201-.051-.428-.102-.68-.152-.234-.067-.57-.15-1.006-.251-.436-.101-.78-.185-1.031-.252a8.243 8.243 0 01-.68-.277c-.2-.1-.419-.226-.653-.377-.235-.151-.554-.352-.956-.604.016-.084-.009-.126-.076-.126-.05 0-.075-.033-.075-.1a17.039 17.039 0 011.861-.654 13.237 13.237 0 001.937-.73 5.29 5.29 0 001.535-1.132c.436-.453.68-1.048.73-1.786a.752.752 0 000-.277.981.981 0 00-.076-.201.738.738 0 01-.025-.176c0-.067.017-.143.05-.227a6.512 6.512 0 01-.352-.78c-.1-.285-.201-.561-.302-.83a4.761 4.761 0 00-.352-.78 2.059 2.059 0 00-.478-.654v-.302c-.134-.083-.252-.159-.352-.226a1.245 1.245 0 00-.327-.226A3.113 3.113 0 0093.27.855a24.538 24.538 0 01-1.107-.78c-.654.067-1.199.277-1.635.63-.42.352-.805.754-1.157 1.207-.352.453-.696.922-1.032 1.409-.335.47-.72.872-1.157 1.207-.05-.117-.193-.21-.428-.276a1.116 1.116 0 00-.603-.076 6.382 6.382 0 00-.403 1.208c-.1.436-.201.88-.302 1.333-.084.453-.184.914-.302 1.384-.1.452-.234.897-.402 1.333.017.084.025.193.025.327 0 .117-.008.243-.025.377a1.32 1.32 0 01-.076.302c-.033.067-.083.076-.15.025.1.252.125.495.075.73s-.117.47-.201.704a8.417 8.417 0 00-.176.755c-.05.268-.101.553-.151.855.067.118.126.235.176.353.05.117.117.176.201.176a.648.648 0 00-.025.302c.017.067.033.142.05.226.034.067.059.15.076.252a.77.77 0 01-.025.327c.184-.034.293.008.327.125.05.118.092.244.125.378.151 0 .26.017.327.05.084.05.151.092.202.126.05.05.109.092.176.126.067.033.176.033.327 0 .1-.067.193-.143.276-.227.084-.084.235-.109.453-.075.285-.37.495-.721.63-1.057zm3.472-9.434c.235-.218.444-.461.629-.73.319.101.62.31.906.63.302.318.486.737.553 1.257-.57.235-1.174.487-1.811.755-.638.252-1.25.411-1.837.478.067-.369.185-.688.352-.956.168-.285.353-.537.554-.755.218-.234.436-.46.654-.679zM75.93 35.522a.313.313 0 00-.175-.252.338.338 0 00.1-.301 1.527 1.527 0 00-.125-.428 3.142 3.142 0 00-.202-.503 4.205 4.205 0 01-.2-.528.636.636 0 00-.152-.076.828.828 0 01-.126-.1 2.432 2.432 0 00-.503-.655 6.912 6.912 0 00-.654-.528l-.654-.503a3.151 3.151 0 01-.579-.579c.252-.318.529-.62.83-.905.32-.286.604-.587.856-.906.268-.319.486-.663.654-1.031.184-.386.268-.84.252-1.359a.244.244 0 00-.151-.1c-.067-.017-.093-.068-.076-.152a.984.984 0 00-.176-.578 1.702 1.702 0 00-.402-.453 4.22 4.22 0 00-.504-.428 2.577 2.577 0 01-.427-.427.603.603 0 01-.353-.126c-.1-.084-.21-.176-.326-.277a2.427 2.427 0 00-.403-.277c-.134-.084-.302-.05-.503.101a1.1 1.1 0 00-.528-.226.615.615 0 01-.353-.202c-.1.05-.226.084-.377.101h-.428c-.15 0-.302.008-.453.025a.778.778 0 00-.352.076 7.23 7.23 0 00-2.113.15c-.654.152-1.308.286-1.962.403-.403.1-.822.21-1.258.327-.436.1-.847.243-1.233.428-.38.165-.72.38-1.02.644a4.958 4.958 0 01-.137-.82 10.23 10.23 0 00-.604-.604 3.947 3.947 0 00-.704-.554c-.37.168-.604.411-.705.73-.067.134-.067.252 0 .352l.05.277c0 .302-.142.503-.427.604-.033.47-.1.972-.201 1.51a9.56 9.56 0 01-.403 1.584 9.04 9.04 0 01-.654 1.56 6.054 6.054 0 01-.906 1.308c-.352.386-.687.73-1.006 1.031a7.15 7.15 0 01-2.163 1.334 14.59 14.59 0 01-1.359.427l-.427.05-.151-.326a4.47 4.47 0 01-.227-.982 10.036 10.036 0 01-.025-1.232c.034-.436.092-.864.176-1.283.1-.42.235-.788.403-1.107a2.898 2.898 0 00-.202-.88 7.25 7.25 0 00-.352-.906 6.004 6.004 0 00-.201-.453 5.801 5.801 0 01-.126-.428 1.28 1.28 0 01-.578-.427 9.956 9.956 0 01-.302-.504 1.393 1.393 0 00-.252-.402c-.084-.084-.243-.117-.478-.1-.084.117-.184.25-.302.402-.117.134-.293.226-.528.276-.1.32-.176.663-.227 1.032-.033.218-.075.453-.125.704-.05.235-.1.537-.151.906v.277c-.252.755-.386 1.618-.403 2.591 0 .956.025 2.012.076 3.17l.025.402c.033.05.075.1.126.151a.45.45 0 01.125.126l.554.604-.428.126c.1.167.193.335.277.503.084.15.168.318.252.503.134.302.268.587.402.855.151.252.369.445.654.579.084 0 .176.025.277.075.1.05.176.143.226.277.47.05.864.075 1.183.075.184.017.377.034.578.05.218 0 .47.018.755.051a95.82 95.82 0 001.887-.83c.57-.252 1.073-.52 1.51-.805a7.12 7.12 0 001.207-1.006 8.01 8.01 0 001.006-1.41l.252-.301.352-.1.1-.63.504.176a.846.846 0 00.125-.2c.05-.101.093-.177.126-.227.067-.118.126-.227.176-.327.067-.118.143-.218.227-.302.15-.336.352-.73.604-1.182.251-.453.511-.973.78-1.56.066-.403.125-.789.175-1.158.045-.246.105-.507.18-.783.316.27.684.49 1.103.658.151-.05.32-.067.504-.05a.683.683 0 00.503-.202c.033-.235.1-.42.201-.553.1-.151.268-.235.503-.252.067.285.076.537.025.755-.05.201-.117.402-.2.604a22.79 22.79 0 00-.202.578 1.6 1.6 0 00-.076.654c-.15.403-.26.738-.327 1.007-.05.268-.1.52-.15.754a4.173 4.173 0 01-.177.73 25.11 25.11 0 00-.352 1.107.768.768 0 00-.277.377 4.58 4.58 0 00-.125.453c-.034.15-.076.302-.126.453a.856.856 0 01-.252.352l.1.252c.034.083.06.184.076.302-.184.033-.285.159-.302.377a5.95 5.95 0 01-.075.604c.067.218.16.419.277.603.134.168.167.31.1.428.134.034.235.126.302.277.067.134.084.235.05.302a.858.858 0 01.302.125c.084.05.151.101.202.151.067.067.125.135.176.202a.958.958 0 00.251.176c.084-.084.168-.118.252-.1.1.016.243.041.427.075a.652.652 0 00.328-.277c.1-.134.192-.269.276-.403.151.101.327.21.529.327.218.135.419.235.603.302.202.084.37.118.504.1.134 0 .21-.083.226-.25.067.033.1.075.1.125a.225.225 0 00.126.151 66.3 66.3 0 001.032-.226c.385-.067.645-.193.78-.378a9.687 9.687 0 002.49-.73 20.567 20.567 0 002.34-1.207c.201-.168.327-.277.377-.327a.875.875 0 00.176-.176c.05-.084.135-.201.252-.352l.629-.805a.752.752 0 000-.277zm-7.169-8.428c.855-.184 1.71-.26 2.566-.226-.42.503-.88.964-1.384 1.384a7.029 7.029 0 01-1.735 1.006 1.91 1.91 0 00-.705-.755 9.262 9.262 0 01-.855-.629c.57-.335 1.274-.595 2.113-.78zm3.17 7.397a.763.763 0 00-.277.402c-.42.151-.822.319-1.207.503-.37.168-.755.336-1.158.503-.385.168-.788.328-1.207.478-.42.135-.88.235-1.384.302.185-.536.378-1.09.579-1.66.201-.57.394-1.099.578-1.585a5.96 5.96 0 001.082-.252 6.498 6.498 0 011.132-.251 3.954 3.954 0 011.258 0c.453.05.948.218 1.484.503.017.201-.025.36-.126.478-.1.1-.218.201-.352.302a5.77 5.77 0 00-.402.277z"
        fill="#D658B3" />
    <path
        d="M39.277 39.547c.553-.15 1.065-.302 1.534-.453l.579-.15c.218 0 .428-.009.629-.026.218-.017.428-.042.629-.075l.604-.05a6.96 6.96 0 01.578-.026c.487 0 .956.076 1.409.227.335-.084.62-.126.855-.126h.151c.067 0 .168-.008.302-.025.084-.084.168-.16.252-.227.1-.067.276-.125.528-.176l-.05-.276c.067-.068.1-.168.1-.302.017-.05-.033-.151-.15-.302l-.177-1.082a1.864 1.864 0 00-.528-.302 4.996 4.996 0 00-.528-.226 5.9 5.9 0 01-.579-.227 2.265 2.265 0 01-.578-.402 1.561 1.561 0 00-.302-.025h-.202a11.357 11.357 0 01-.276-.151 3.98 3.98 0 01-.654.05h-.705a32.72 32.72 0 00-1.786.1 4.2 4.2 0 00-1.635.479 2.217 2.217 0 00-.529-.076h-.226a.617.617 0 00-.226.05 6.86 6.86 0 01.276-1.66c.168-.486.352-.973.554-1.459.117-.268.226-.537.327-.805.117-.268.201-.62.251-1.057a.556.556 0 00.176-.226c.05-.1.093-.193.126-.277.034-.084.059-.16.076-.226.033-.067.084-.143.15-.227.068-.369.152-.679.252-.93.1-.252.21-.504.327-.755.101-.235.193-.47.277-.705.1-.234.193-.52.277-.855.05 0 .126-.075.226-.226.05-.37.009-.663-.126-.88a4.54 4.54 0 00-.478-.68l-.1-.1c-.034-.051-.118-.118-.252-.202-.268 0-.603-.067-1.006-.201a11.109 11.109 0 01-1.057-.453c-.067.017-.15.042-.251.075a4.107 4.107 0 00-.302.177 25.562 25.562 0 01-.68 2.39c-.25.737-.52 1.484-.804 2.238-.168.436-.336.881-.504 1.334-.15.436-.343.973-.578 1.61-.084.15-.16.319-.227.503a.652.652 0 000 .503 2.386 2.386 0 00-.327.654c-.067.252-.134.512-.2.78-.018.084-.034.16-.051.227a.447.447 0 01-.05.2c-.084.303-.143.621-.177.957-.016.335-.008.67.026 1.006.05.319.134.637.251.956.117.302.277.57.478.805.017.134.042.243.076.327l.15.201c.068.067.143.193.227.378.486.419 1.149.629 1.987.629.554 0 1.107-.076 1.66-.227zM30.396 39.396c.403.034.738.042 1.006.025.286-.218.57-.427.856-.629.285-.218.545-.452.78-.704.05-.285.033-.52-.05-.704a1.867 1.867 0 00-.328-.529 2.89 2.89 0 00-.452-.452 3.577 3.577 0 01-.403-.478 70.927 70.927 0 01-3.774-.151 15.776 15.776 0 01-3.522-.63 8.57 8.57 0 01-.276-.553 2.68 2.68 0 01-.176-.679c.084-.134.167-.26.251-.377.1-.134.143-.319.126-.554.268-.251.52-.503.755-.755.251-.268.511-.52.78-.754.285-.252.578-.47.88-.654a4.23 4.23 0 011.082-.478c.453-.503 1.031-.88 1.736-1.132a26.244 26.244 0 012.289-.73c.352-.1.68-.302.981-.604.302-.302.512-.629.629-.98.117-.353.11-.688-.025-1.007-.134-.336-.453-.579-.956-.73 0-.1.017-.167.05-.201.034-.05.017-.117-.05-.201-.201-.017-.352-.059-.453-.126a.372.372 0 00-.327-.1c.017-.034.042-.093.076-.177.033-.084.008-.125-.076-.125-.034.083-.075.125-.126.125a.542.542 0 01-.125-.1c-.05-.05-.11-.101-.177-.151-.05-.05-.117-.067-.2-.05-.135.05-.278.1-.429.15-.15.034-.268-.017-.352-.15a1.1 1.1 0 01-.427.402c-.168.1-.353.201-.554.302a8.496 8.496 0 00-.553.277 1.418 1.418 0 00-.478.352 3.587 3.587 0 00-.931.352 7.73 7.73 0 00-.78.503c-.252.168-.512.335-.78.503-.252.151-.553.268-.906.352a1.75 1.75 0 01-.352.353c-.117.084-.243.176-.377.276a2.821 2.821 0 00-.352.302c-.101.1-.26.202-.478.302a66.697 66.697 0 00-1.434 1.635c-.453.537-.805 1.183-1.057 1.937-.017.504 0 1.032.05 1.585.05.537.151 1.065.302 1.585a7.65 7.65 0 00.604 1.484c.252.453.579.84.981 1.158.285.067.512.184.68.352.167.15.335.319.503.503a19.21 19.21 0 002.54.68c.923.184 1.829.293 2.717.326a2.14 2.14 0 011.082-.176zM81.66 25.265c-.289.064-.487.15-.596.258a.654.654 0 00-.23.404.926.926 0 00-.02.474c.035.174.06.35.075.526.515.291 1.207.47 2.075.534.867.045 1.77.057 2.71.036a65.23 65.23 0 002.723-.17c.876-.075 1.57-.104 2.081-.088 1.062.028 1.89.076 2.485.144.573.05.97.115 1.193.195.368-.051.655-.144.86-.28.203-.135.367-.287.49-.455.122-.188.222-.393.301-.617.08-.223.177-.458.294-.704-.091-.15-.13-.374-.116-.67.014-.297.112-.532.294-.705-.158-.006-.284-.104-.378-.293-.096-.209-.11-.365-.04-.47a5.299 5.299 0 00-1.006-.063 21.982 21.982 0 00-1.088.004c-.352.01-.686.009-1.001-.004a3.1 3.1 0 01-.87-.193c-.975.063-1.98.119-3.017.167-1.055.05-2.042.094-2.96.132a4.93 4.93 0 01-1.154.275 9.707 9.707 0 00-1.308.2 3.246 3.246 0 00-1.14.421c-.337.206-.555.52-.657.942zM15.488 25.523c-.109-.108-.307-.194-.596-.258-.102-.422-.32-.736-.656-.942a3.246 3.246 0 00-1.142-.422 9.703 9.703 0 00-1.307-.199 4.93 4.93 0 01-1.154-.275c-.918-.038-1.905-.082-2.96-.132a170.075 170.075 0 01-3.017-.167 3.1 3.1 0 01-.87.193 14.48 14.48 0 01-1 .004c-.353-.01-.716-.011-1.09-.003a5.3 5.3 0 00-1.005.062c.07.105.056.261-.04.47-.094.189-.22.287-.378.293.182.173.28.408.294.705.014.296-.025.52-.116.67.117.246.214.48.294.704.079.224.18.43.3.617.124.168.287.32.492.455.204.136.49.229.859.28.222-.08.62-.145 1.193-.195.595-.068 1.423-.116 2.484-.144.512-.016 1.206.013 2.082.087.877.074 1.784.131 2.723.171.94.02 1.843.009 2.71-.036.869-.065 1.56-.243 2.075-.534.015-.176.04-.352.074-.526a.925.925 0 00-.018-.474.654.654 0 00-.231-.404z"
        fill="#D658B3" />
</svg>